<?xml version="1.0" standalone="no"?>
<!DOCTYPE svg PUBLIC "-//W3C//DTD SVG 1.1//EN" "http://www.w3.org/Graphics/SVG/1.1/DTD/svg11.dtd" >
<svg xmlns="http://www.w3.org/2000/svg" xmlns:xlink="http://www.w3.org/1999/xlink" version="1.1" viewBox="-10 0 1150 2048">
   <path fill="currentColor"
d="M849 1317q0 -109 -74.5 -159t-222.5 -50q-16 0 -34.5 0.5t-37 2t-35.5 3t-30 2.5q-12 0 -19 1t-10 1v419q4 0 18 0.5t31 1.5t35 1.5t30 0.5q97 0 163.5 -14t108 -42t59.5 -70t18 -98zM776 802q0 -93 -70.5 -143t-214.5 -50q-18 0 -39.5 1t-38.5 2q-7 1 -15 1.5t-12 0.5
v400q4 0 12.5 0.5t18.5 0.5t20 0.5t16 0.5q90 0 151.5 -14t100 -41.5t55 -67.5t16.5 -91zM1051 1303q0 69 -21.5 120t-57 88.5t-83 62t-100 38.5t-106 20t-102.5 6h-516v-87l98 -6q20 -2 29 -10.5t9 -17.5v-878q0 -9 -9 -18t-29 -10q-25 -2 -49 -3.5t-49 -2.5v-87h494
q110 0 189 19t129.5 54t74 85.5t23.5 114.5q0 56 -19.5 97t-50 70.5t-69 49t-76.5 31.5q56 5 108.5 21.5t93 48t65 79.5t24.5 115z" />
</svg>
