<?xml version="1.0" encoding="UTF-8" standalone="no"?>
<svg
   version="1.1"
   viewBox="-10 0 1147 2048"
   id="svg4"
   sodipodi:docname="b_CharisSIL.svg"
   inkscape:version="1.1.2 (0a00cf5339, 2022-02-04)"
   xmlns:inkscape="http://www.inkscape.org/namespaces/inkscape"
   xmlns:sodipodi="http://sodipodi.sourceforge.net/DTD/sodipodi-0.dtd"
   xmlns="http://www.w3.org/2000/svg"
   xmlns:svg="http://www.w3.org/2000/svg">
  <defs
     id="defs8" />
  <sodipodi:namedview
     id="namedview6"
     pagecolor="#ffffff"
     bordercolor="#666666"
     borderopacity="1.0"
     inkscape:pageshadow="2"
     inkscape:pageopacity="0.0"
     inkscape:pagecheckerboard="0"
     showgrid="false"
     inkscape:zoom="0.37890625"
     inkscape:cx="1093.9381"
     inkscape:cy="1024"
     inkscape:window-width="1920"
     inkscape:window-height="1011"
     inkscape:window-x="0"
     inkscape:window-y="0"
     inkscape:window-maximized="1"
     inkscape:current-layer="svg4" />
  <path
     fill="currentColor"
     d="M1067 1097q0 116 -34 214.5t-105.5 171.5t-183 114t-265.5 41h-295v-1362h-155v-68l264 -79h82v573q18 -8 47 -21t66.5 -25t80.5 -21t88 -9q101 0 177.5 38t128.5 103t78 150.5t26 179.5zM858 1138q0 -193 -82.5 -292t-230.5 -99q-17 0 -40 3t-46.5 8t-46 11t-37.5 11 v760q17 1 35 1q15 1 32 1h33q91 0 162 -21t120 -69t75 -125t26 -189z"
     id="path2"
     style="font-variation-settings:normal;opacity:1;vector-effect:none;fill:currentColor;fill-opacity:1;stroke-width:1;stroke-linecap:butt;stroke-linejoin:miter;stroke-miterlimit:4;stroke-dasharray:none;stroke-dashoffset:0;stroke-opacity:1;-inkscape-stroke:none;stop-color:#000000;stop-opacity:1" />
</svg>
