<?xml version="1.0" standalone="no"?>
<!DOCTYPE svg PUBLIC "-//W3C//DTD SVG 1.1//EN" "http://www.w3.org/Graphics/SVG/1.1/DTD/svg11.dtd" >
<svg xmlns="http://www.w3.org/2000/svg" xmlns:xlink="http://www.w3.org/1999/xlink" version="1.1" viewBox="-10 0 1249 2048">
   <path fill="currentColor"
d="M1159 1232q0 83 -23.5 145.5t-63.5 107.5t-92.5 74.5t-110 47t-117 24.5t-113.5 7h-573v-88l108 -8q22 -2 32.5 -16t10.5 -29v-1092q0 -15 -10.5 -29t-32.5 -16l-108 -8v-88h548q122 0 209.5 22.5t143.5 65.5t82 104t26 138t-29 131t-73 91t-96 59t-97 34
q69 0 136.5 16.5t121.5 54.5t87.5 100t33.5 152zM936 1249q0 -140 -83 -205t-247 -65q-25 0 -55.5 2t-57.5 4t-47 4t-24 2v541q25 2 49 3q20 2 41.5 2.5t36.5 0.5q108 0 181.5 -18t119.5 -54t66 -90t20 -127zM854 608q0 -121 -78 -185.5t-237 -64.5q-16 0 -34.5 1t-35 2
t-29.5 2t-18 1v518q14 1 28 1q12 1 24 1h22q100 0 168.5 -18.5t110.5 -53.5t60.5 -86.5t18.5 -117.5z" />
</svg>
