<?xml version="1.0" standalone="no"?>
<!DOCTYPE svg PUBLIC "-//W3C//DTD SVG 1.1//EN" "http://www.w3.org/Graphics/SVG/1.1/DTD/svg11.dtd" >
<svg xmlns="http://www.w3.org/2000/svg" xmlns:xlink="http://www.w3.org/1999/xlink" version="1.1" viewBox="-10 0 964 2048">
   <path fill="currentColor"
d="M885 1562q-35 18 -73.5 36.5t-82 32.5t-91 23t-99.5 9q-108 0 -194.5 -38.5t-147.5 -107t-94 -162.5t-33 -204q0 -129 40 -227t108 -164.5t157.5 -100t187.5 -33.5q67 0 125.5 13.5t101 39.5t67 64t24.5 88q0 30 -10.5 52.5t-27.5 38t-38.5 23t-44.5 7.5q-34 0 -59 -11.5
t-44 -23.5v-178q-21 -12 -43.5 -19.5t-42.5 -7.5q-68 0 -122.5 31t-92 86t-57.5 130.5t-20 164.5q0 85 21.5 160t64 130.5t106 87.5t147.5 32q72 0 136.5 -22.5t130.5 -66.5v117z" />
</svg>
