<?xml version="1.0" standalone="no"?>
<!DOCTYPE svg PUBLIC "-//W3C//DTD SVG 1.1//EN" "http://www.w3.org/Graphics/SVG/1.1/DTD/svg11.dtd" >
<svg xmlns="http://www.w3.org/2000/svg" xmlns:xlink="http://www.w3.org/1999/xlink" version="1.1" viewBox="-10 0 1294 2048">
   <path fill="currentColor"
d="M1204 1591q-4 2 -39 14.5t-91 27t-128.5 26.5t-150.5 12q-115 0 -212.5 -27.5t-177 -76.5t-140 -117t-102 -148t-62.5 -170t-21 -184q0 -159 52 -291t146 -226.5t226 -147t293 -52.5q50 0 96.5 5.5t94.5 15.5t101 25t115 34v321h-123l-30 -186q-2 -14 -14 -28t-21 -19
q-12 -5 -31.5 -14t-46.5 -17.5t-60 -15t-71 -6.5q-105 0 -195 39t-156 115t-103.5 188.5t-37.5 259.5q0 143 35.5 256t102.5 192t163 120.5t218 41.5q36 0 65.5 -5t51.5 -11.5t34 -12t14 -6.5q16 -6 26 -17t13 -24l47 -223h119v332z" />
</svg>
